<svg width="181" height="181" viewBox="0 0 181 181" fill="none" xmlns="http://www.w3.org/2000/svg">
<path d="M180.227 90.2614C180.227 40.5561 139.932 0.261414 90.2267 0.261414C40.5214 0.261414 0.226562 40.5561 0.226562 90.2614C0.226562 135.183 33.1387 172.416 76.164 179.167V116.277H53.312V90.2614H76.164V70.4334C76.164 47.8774 89.6014 35.4174 110.159 35.4174C120.005 35.4174 130.305 37.1747 130.305 37.1747V59.324H118.956C107.776 59.324 104.289 66.2614 104.289 73.3787V90.2614H129.251L125.26 116.277H104.289V179.167C147.315 172.416 180.227 135.183 180.227 90.2614Z" fill="#4676ED"/>
<path d="M125.26 116.277L129.251 90.2614H104.289V73.3787C104.289 66.2613 107.776 59.324 118.956 59.324H130.305V37.1746C130.305 37.1746 120.005 35.4173 110.159 35.4173C89.6013 35.4173 76.164 47.8774 76.164 70.4334V90.2614H53.312V116.277H76.164V179.167C80.7467 179.887 85.4427 180.261 90.2267 180.261C95.0107 180.261 99.7067 179.887 104.289 179.167V116.277H125.26Z" fill="white"/>
</svg>
