<svg width="180" height="180" viewBox="0 0 180 180" fill="none" xmlns="http://www.w3.org/2000/svg">
<path d="M180 90C180 139.705 139.705 180 90 180C40.2947 180 0 139.705 0 90C0 40.2947 40.2947 -1.52588e-05 90 -1.52588e-05C139.705 -1.52588e-05 180 40.2947 180 90Z" fill="white"/>
<path d="M180 90C180 139.705 139.705 180 90 180C40.2947 180 0 139.705 0 90C0 40.2947 40.2947 -1.52588e-05 90 -1.52588e-05C139.705 -1.52588e-05 180 40.2947 180 90Z" fill="url(#paint0_linear_305_1410)"/>
<path d="M180 90C180 139.705 139.705 180 90 180C40.2947 180 0 139.705 0 90C0 40.2947 40.2947 -1.52588e-05 90 -1.52588e-05C139.705 -1.52588e-05 180 40.2947 180 90Z" fill="url(#paint1_linear_305_1410)"/>
<path d="M90.0002 33.5947C74.6108 33.5947 72.6801 33.6599 66.6375 33.9359C60.6055 34.2106 56.4855 35.1679 52.8815 36.5693C49.1548 38.0173 45.9948 39.9547 42.8442 43.1053C39.6948 46.256 37.7562 49.416 36.3082 53.1427C34.9082 56.7467 33.9495 60.8654 33.6748 66.8974C33.3988 72.9414 33.3335 74.8707 33.3335 90.2613C33.3335 105.651 33.3988 107.581 33.6748 113.625C33.9495 119.656 34.9082 123.776 36.3082 127.38C37.7562 131.107 39.6948 134.267 42.8442 137.417C45.9948 140.567 49.1548 142.504 52.8815 143.953C56.4855 145.353 60.6055 146.312 66.6375 146.587C72.6801 146.863 74.6108 146.928 90.0002 146.928C105.389 146.928 107.319 146.863 113.363 146.587C119.396 146.312 123.515 145.353 127.119 143.953C130.846 142.504 134.005 140.567 137.156 137.417C140.305 134.267 142.244 131.107 143.692 127.38C145.092 123.776 146.051 119.656 146.325 113.625C146.601 107.581 146.667 105.651 146.667 90.2613C146.667 74.872 146.601 72.9414 146.325 66.8974C146.051 60.8654 145.092 56.7467 143.692 53.1427C142.244 49.416 140.305 46.256 137.156 43.1053C134.005 39.9547 130.846 38.0173 127.119 36.5693C123.515 35.1679 119.396 34.2106 113.363 33.9359C107.319 33.6599 105.389 33.5947 90.0002 33.5947ZM90.0002 43.8053C105.131 43.8053 106.923 43.8626 112.899 44.1346C118.423 44.388 121.423 45.3107 123.42 46.0867C126.065 47.1134 127.953 48.3427 129.936 50.3254C131.919 52.308 133.147 54.1959 134.175 56.8413C134.951 58.8373 135.874 61.8373 136.127 67.3626C136.399 73.3386 136.458 75.1306 136.458 90.2613C136.458 105.392 136.399 107.184 136.127 113.16C135.874 118.684 134.951 121.685 134.175 123.681C133.147 126.327 131.919 128.215 129.936 130.197C127.953 132.18 126.065 133.408 123.42 134.436C121.423 135.212 118.423 136.136 112.899 136.388C106.923 136.66 105.132 136.717 90.0002 136.717C74.8682 136.717 73.0761 136.66 67.1015 136.388C61.5775 136.136 58.5762 135.212 56.5802 134.436C53.9348 133.408 52.0468 132.18 50.0642 130.197C48.0815 128.215 46.8535 126.327 45.8255 123.681C45.0495 121.685 44.1268 118.684 43.8735 113.16C43.6015 107.184 43.5442 105.392 43.5442 90.2613C43.5442 75.1306 43.6015 73.3386 43.8735 67.3626C44.1268 61.8373 45.0495 58.8373 45.8255 56.8413C46.8535 54.1959 48.0815 52.308 50.0642 50.3254C52.0468 48.3427 53.9348 47.1134 56.5802 46.0867C58.5762 45.3107 61.5775 44.388 67.1015 44.1346C73.0775 43.8626 74.8695 43.8053 90.0002 43.8053Z" fill="white"/>
<path d="M90.0001 109.151C79.5681 109.151 71.1107 100.693 71.1107 90.2614C71.1107 79.8294 79.5681 71.3721 90.0001 71.3721C100.432 71.3721 108.889 79.8294 108.889 90.2614C108.889 100.693 100.432 109.151 90.0001 109.151ZM90.0001 61.1627C73.9294 61.1627 60.9014 74.1907 60.9014 90.2614C60.9014 106.332 73.9294 119.36 90.0001 119.36C106.072 119.36 119.099 106.332 119.099 90.2614C119.099 74.1907 106.072 61.1627 90.0001 61.1627Z" fill="white"/>
<path d="M127.048 60.012C127.048 63.768 124.004 66.812 120.249 66.812C116.493 66.812 113.449 63.768 113.449 60.012C113.449 56.2573 116.493 53.212 120.249 53.212C124.004 53.212 127.048 56.2573 127.048 60.012Z" fill="white"/>
<defs>
<linearGradient id="paint0_linear_305_1410" x1="-20.0769" y1="204.923" x2="47.0769" y2="73.3846" gradientUnits="userSpaceOnUse">
<stop stop-color="#D9D9D9"/>
<stop offset="0.0001" stop-color="#1F0CF8"/>
<stop offset="0.868122" stop-color="#ED1389"/>
</linearGradient>
<linearGradient id="paint1_linear_305_1410" x1="6.23078" y1="4.84616" x2="79.6154" y2="189.692" gradientUnits="userSpaceOnUse">
<stop stop-color="#FC2C46"/>
<stop offset="0.0001" stop-color="#FBAB48"/>
<stop offset="0.39864" stop-color="#FC3746"/>
<stop offset="0.85431" stop-color="#FC2C46" stop-opacity="0"/>
</linearGradient>
</defs>
</svg>
