<svg width="46" height="46" viewBox="0 0 46 46" fill="none" xmlns="http://www.w3.org/2000/svg">
<circle cx="23" cy="23" r="22.4227" fill="#425466" stroke="#425466" stroke-width="1.15462"/>
<path d="M23 13.1687C26.1807 13.1687 26.6145 13.1687 27.9157 13.1687C29.0723 13.1687 29.6506 13.4578 30.0843 13.6024C30.6627 13.8916 31.0964 14.0361 31.5301 14.4699C31.9639 14.9036 32.253 15.3374 32.3976 15.9157C32.5422 16.3494 32.6867 16.9277 32.8313 18.0843C32.8313 19.3855 32.8313 19.6747 32.8313 23C32.8313 26.3253 32.8313 26.6145 32.8313 27.9157C32.8313 29.0723 32.5422 29.6506 32.3976 30.0843C32.1084 30.6627 31.9639 31.0964 31.5301 31.5301C31.0964 31.9639 30.6627 32.253 30.0843 32.3976C29.6506 32.5422 29.0723 32.6867 27.9157 32.8313C26.6145 32.8313 26.3253 32.8313 23 32.8313C19.6747 32.8313 19.3855 32.8313 18.0843 32.8313C16.9277 32.8313 16.3494 32.5422 15.9157 32.3976C15.3374 32.1084 14.9036 31.9639 14.4699 31.5301C14.0361 31.0964 13.747 30.6627 13.6024 30.0843C13.4578 29.6506 13.3133 29.0723 13.1687 27.9157C13.1687 26.6145 13.1687 26.3253 13.1687 23C13.1687 19.6747 13.1687 19.3855 13.1687 18.0843C13.1687 16.9277 13.4578 16.3494 13.6024 15.9157C13.8916 15.3374 14.0361 14.9036 14.4699 14.4699C14.9036 14.0361 15.3374 13.747 15.9157 13.6024C16.3494 13.4578 16.9277 13.3133 18.0843 13.1687C19.3855 13.1687 19.8193 13.1687 23 13.1687ZM23 11C19.6747 11 19.3855 11 18.0843 11C16.7831 11 15.9157 11.2892 15.1928 11.5783C14.4699 11.8675 13.747 12.3012 13.0241 13.0241C12.3012 13.747 12.012 14.3253 11.5783 15.1928C11.2892 15.9157 11.1446 16.7831 11 18.0843C11 19.3855 11 19.8193 11 23C11 26.3253 11 26.6145 11 27.9157C11 29.2169 11.2892 30.0843 11.5783 30.8072C11.8675 31.5301 12.3012 32.253 13.0241 32.9759C13.747 33.6988 14.3253 33.988 15.1928 34.4217C15.9157 34.7108 16.7831 34.8554 18.0843 35C19.3855 35 19.8193 35 23 35C26.1807 35 26.6145 35 27.9157 35C29.2169 35 30.0843 34.7108 30.8072 34.4217C31.5301 34.1325 32.253 33.6988 32.9759 32.9759C33.6988 32.253 33.988 31.6747 34.4217 30.8072C34.7108 30.0843 34.8554 29.2169 35 27.9157C35 26.6145 35 26.1807 35 23C35 19.8193 35 19.3855 35 18.0843C35 16.7831 34.7108 15.9157 34.4217 15.1928C34.1325 14.4699 33.6988 13.747 32.9759 13.0241C32.253 12.3012 31.6747 12.012 30.8072 11.5783C30.0843 11.2892 29.2169 11.1446 27.9157 11C26.6145 11 26.3253 11 23 11Z" fill="white"/>
<path d="M23 16.7831C19.5301 16.7831 16.7831 19.5301 16.7831 23C16.7831 26.4699 19.5301 29.2169 23 29.2169C26.4699 29.2169 29.2169 26.4699 29.2169 23C29.2169 19.5301 26.4699 16.7831 23 16.7831ZM23 27.0482C20.8313 27.0482 18.9518 25.3133 18.9518 23C18.9518 20.8313 20.6867 18.9518 23 18.9518C25.1687 18.9518 27.0482 20.6867 27.0482 23C27.0482 25.1687 25.1687 27.0482 23 27.0482Z" fill="white"/>
<path d="M29.3614 18.0843C30.1599 18.0843 30.8072 17.437 30.8072 16.6386C30.8072 15.8401 30.1599 15.1928 29.3614 15.1928C28.563 15.1928 27.9157 15.8401 27.9157 16.6386C27.9157 17.437 28.563 18.0843 29.3614 18.0843Z" fill="white"/>
</svg>
