<svg width="181" height="181" viewBox="0 0 181 181" fill="none" xmlns="http://www.w3.org/2000/svg">
<path d="M180.113 90.2613C180.113 139.967 139.819 180.261 90.1133 180.261C40.4079 180.261 0.113281 139.967 0.113281 90.2613C0.113281 40.556 40.4079 0.261337 90.1133 0.261337C139.819 0.261337 180.113 40.556 180.113 90.2613Z" fill="white"/>
<path fill-rule="evenodd" clip-rule="evenodd" d="M90.1133 23.5948C51.8066 23.5948 22.1133 51.6548 22.1133 89.5548C22.1133 109.379 30.2386 126.509 43.4693 138.341C44.5799 139.336 45.2506 140.728 45.2959 142.22L45.6666 154.315C45.7839 158.173 49.7706 160.684 53.2999 159.125L66.7973 153.167C67.9413 152.663 69.2239 152.569 70.4293 152.901C76.6319 154.607 83.2333 155.515 90.1133 155.515C128.42 155.515 158.113 127.455 158.113 89.5548C158.113 51.6548 128.42 23.5948 90.1133 23.5948Z" fill="url(#paint0_radial_305_1409)"/>
<path fill-rule="evenodd" clip-rule="evenodd" d="M49.2784 108.844L69.2544 77.1535C72.4317 72.1122 79.2357 70.8575 84.0024 74.4322L99.8904 86.3482C101.348 87.4415 103.354 87.4361 104.805 86.3335L126.261 70.0495C129.125 67.8761 132.864 71.3041 130.946 74.3454L110.972 106.036C107.794 111.077 100.99 112.333 96.2224 108.757L80.3357 96.8414C78.8784 95.7481 76.8717 95.7534 75.4211 96.8561L53.9651 113.14C51.1011 115.313 47.3624 111.885 49.2784 108.844Z" fill="white"/>
<defs>
<radialGradient id="paint0_radial_305_1409" cx="0" cy="0" r="1" gradientUnits="userSpaceOnUse" gradientTransform="translate(48.2893 158.867) scale(148.185 148.185)">
<stop stop-color="#5697FB"/>
<stop offset="0.609754" stop-color="#8936F9"/>
<stop offset="0.934823" stop-color="#DD537E"/>
<stop offset="1" stop-color="#E06F62"/>
</radialGradient>
</defs>
</svg>
