<svg width="180" height="180" viewBox="0 0 180 180" fill="none" xmlns="http://www.w3.org/2000/svg">
<path d="M180 90C180 139.705 139.705 180 90 180C40.2947 180 0 139.705 0 90C0 40.2947 40.2947 -9.38773e-06 90 -9.38773e-06C139.705 -9.38773e-06 180 40.2947 180 90Z" fill="#EAECFF"/>
<path d="M47.123 56.136C47.123 59.72 49.203 61.992 53.171 62.856L56.883 63.688C58.803 64.104 59.603 65.032 59.603 66.6C59.603 68.552 57.875 69.736 55.155 69.736C52.531 69.736 50.931 68.552 50.899 66.568H46.803C46.899 70.76 50.163 73.416 55.155 73.416C60.307 73.416 63.699 70.6 63.699 66.248C63.699 62.76 61.747 60.712 57.747 59.848L54.067 59.048C52.115 58.6 51.219 57.672 51.219 56.008C51.219 54.056 52.851 52.84 55.379 52.84C57.683 52.84 59.123 54.024 59.219 56.04H63.315C63.187 51.816 60.179 49.192 55.443 49.192C50.515 49.192 47.123 52.04 47.123 56.136ZM77.2925 73.384C82.8285 73.384 87.1165 70.12 88.0125 65.192H83.7565C82.9885 67.784 80.5565 69.448 77.3885 69.448C73.1005 69.448 70.3485 66.248 70.3485 61.288C70.3485 56.296 73.0685 53.16 77.3885 53.16C80.4925 53.16 82.8285 54.76 83.6285 57.48H87.9485C87.1485 52.456 83.0205 49.224 77.4845 49.224C70.6365 49.224 66.0605 54.056 66.0605 61.32C66.0605 68.648 70.4765 73.384 77.2925 73.384ZM92.7018 73L94.5898 67.592H103.326L105.214 73H109.534L101.086 49.608H96.8938L88.4458 73H92.7018ZM98.4618 56.584C98.6858 55.944 98.8778 55.24 98.9738 54.792C99.0378 55.272 99.2618 55.976 99.4538 56.584L102.142 64.136H95.8058L98.4618 56.584ZM116.499 73V56.424L127.507 73H131.539V49.608H127.507V66.184L116.531 49.608H112.467V73H116.499Z" fill="#5261F5"/>
<path d="M56.37 129V112.232C56.37 106.408 56.306 101.992 55.858 99.176L67.698 129H75.25L87.154 99.112C86.706 102.44 86.706 105.192 86.706 114.6V129H94.642V82.216H86.578L71.474 119.464L56.37 82.216H48.434V129H56.37ZM134.053 129V121.448H113.189V109.032H131.877V101.8H113.189V89.768H134.053V82.216H104.997V129H134.053Z" fill="#5261F5"/>
</svg>
