<svg width="181" height="181" viewBox="0 0 181 181" fill="none" xmlns="http://www.w3.org/2000/svg">
<path fill-rule="evenodd" clip-rule="evenodd" d="M180.773 90.2613C180.773 139.967 140.48 180.261 90.7734 180.261C41.0668 180.261 0.773438 139.967 0.773438 90.2613C0.773438 40.556 41.0668 0.261337 90.7734 0.261337C140.48 0.261337 180.773 40.556 180.773 90.2613Z" fill="#5A99EC"/>
<path d="M72.5867 142.095C116.547 142.095 140.587 105.677 140.587 74.0988C140.587 73.0641 140.56 72.0334 140.52 71.0094C145.187 67.6361 149.24 63.4267 152.44 58.636C148.16 60.5373 143.547 61.8201 138.72 62.3975C143.653 59.4401 147.44 54.7574 149.227 49.1774C144.6 51.9147 139.493 53.9067 134.053 54.9787C129.68 50.3334 123.48 47.4281 116.6 47.4281C103.4 47.4281 92.7066 58.1307 92.7066 71.324C92.7066 73.2 92.9067 75.024 93.32 76.7734C73.4533 75.7747 55.8533 66.2654 44.0666 51.8054C42.0133 55.3361 40.8266 59.4401 40.8266 63.8161C40.8266 72.1081 45.0399 79.4268 51.4666 83.7094C47.5466 83.5881 43.8532 82.5108 40.6399 80.7201L40.6266 81.024C40.6266 92.5987 48.8666 102.261 59.7999 104.453C57.7999 105 55.6799 105.293 53.5066 105.293C51.9599 105.293 50.4665 105.141 49.0132 104.863C52.0532 114.357 60.8799 121.267 71.3333 121.461C63.1599 127.871 52.8533 131.692 41.6533 131.692C39.7333 131.692 37.8266 131.581 35.96 131.36C46.5333 138.139 59.0933 142.095 72.5867 142.095Z" fill="white"/>
</svg>
