<svg width="181" height="181" viewBox="0 0 181 181" fill="none" xmlns="http://www.w3.org/2000/svg">
<path d="M180.887 90.2613C180.887 139.967 140.592 180.261 90.8868 180.261C41.1814 180.261 0.886719 139.967 0.886719 90.2613C0.886719 40.556 41.1814 0.261343 90.8868 0.261343C140.592 0.261343 180.887 40.556 180.887 90.2613Z" fill="#79CE52"/>
<path fill-rule="evenodd" clip-rule="evenodd" d="M119.822 100.361C118.396 99.6467 111.382 96.1961 110.074 95.7214C108.766 95.2454 107.816 95.0067 106.864 96.4347C105.914 97.8614 103.18 101.075 102.348 102.027C101.516 102.977 100.684 103.097 99.257 102.383C97.8304 101.669 93.2344 100.164 87.785 95.3054C83.5437 91.5241 80.6811 86.8535 79.8491 85.4254C79.0171 83.9975 79.7597 83.2254 80.473 82.5148C81.1157 81.8761 81.9011 80.8494 82.6144 80.0161C83.3277 79.1841 83.565 78.5881 84.0397 77.6374C84.517 76.6854 84.2784 75.8521 83.9211 75.1387C83.5651 74.4241 80.7118 67.4054 79.5238 64.5494C78.3651 61.7694 77.1904 62.1454 76.3131 62.1014C75.4824 62.06 74.5304 62.052 73.5798 62.052C72.6291 62.052 71.0837 62.408 69.7757 63.836C68.4677 65.264 64.7824 68.7134 64.7824 75.7334C64.7824 82.7521 69.8944 89.5333 70.6077 90.4853C71.3211 91.4373 80.6664 105.843 94.9771 112.02C98.3811 113.489 101.038 114.367 103.11 115.024C106.528 116.109 109.638 115.956 112.096 115.589C114.836 115.18 120.536 112.139 121.725 108.807C122.914 105.476 122.914 102.621 122.557 102.027C122.2 101.432 121.249 101.075 119.822 100.361ZM93.7931 135.889H93.773C85.2584 135.887 76.9078 133.6 69.6211 129.277L67.8878 128.249L49.9277 132.959L54.7224 115.453L53.5931 113.659C48.8438 106.105 46.3344 97.376 46.3384 88.412C46.3491 62.256 67.6371 40.9761 93.8117 40.9761C106.486 40.9814 118.401 45.9227 127.361 54.8894C136.32 63.856 141.25 75.7747 141.248 88.4507C141.237 114.609 119.948 135.889 93.7931 135.889ZM134.18 48.0761C123.401 37.2868 109.065 31.3427 93.7931 31.336C62.3224 31.336 36.7104 56.9388 36.6984 88.4094C36.6944 98.4681 39.3224 108.287 44.3197 116.943L36.2197 146.519L66.4864 138.583C74.8251 143.129 84.2143 145.525 93.769 145.529H93.7931C125.258 145.529 150.873 119.924 150.886 88.4547C150.893 73.2041 144.96 58.8628 134.18 48.0761Z" fill="white"/>
</svg>
