<?xml version="1.0" encoding="utf-8"?>
<!-- Generator: Adobe Illustrator 16.0.0, SVG Export Plug-In . SVG Version: 6.00 Build 0)  -->
<!DOCTYPE svg PUBLIC "-//W3C//DTD SVG 1.1//EN" "http://www.w3.org/Graphics/SVG/1.1/DTD/svg11.dtd">
<svg version="1.1" id="Layer_1" xmlns="http://www.w3.org/2000/svg" xmlns:xlink="http://www.w3.org/1999/xlink" x="0px" y="0px"
	 width="64px" height="64px" viewBox="0 0 64 64" enable-background="new 0 0 64 64" xml:space="preserve">
<path fill="#0A2540" d="M32,0C14.326,0,0,14.323,0,32c0,6.294,1.828,12.162,4.961,17.113l-3.947,11.85
	c-0.555,1.671,0.354,2.583,2.025,2.024l11.852-3.949C19.842,62.177,25.707,64,32,64c17.672,0,32-14.323,32-32S49.672,0,32,0z
	 M45.984,43.501l-1.938,1.93c-4.021,4.025-13.004,0.114-19.297-6.179c-6.299-6.296-10.207-15.281-6.182-19.3l1.936-1.938
	c1.646-1.647,4.023-1.389,5.279,0.574l2.971,4.946c0.668,1.045,0.496,2.624-0.381,3.506l-1.598,1.598
	c0.434,1.771,1.863,3.979,3.232,5.354c1.369,1.366,3.576,2.798,5.352,3.233l1.6-1.596c0.879-0.882,2.457-1.053,3.508-0.386
	l4.943,2.97C47.373,39.47,47.633,41.849,45.984,43.501z"/>
</svg>
