<svg width="180" height="181" viewBox="0 0 180 181" fill="none" xmlns="http://www.w3.org/2000/svg">
<path d="M180 90.952C180 140.657 139.705 180.952 90 180.952C40.2947 180.952 0 140.657 0 90.952C0 41.2467 40.2947 0.952011 90 0.952011C139.705 0.952011 180 41.2467 180 90.952Z" fill="#DA0000"/>
<path d="M78 108.952V72.952L109.176 90.952L78 108.952ZM147.492 62.0693C146.112 56.9067 142.047 52.84 136.883 51.46C127.525 48.952 90 48.952 90 48.952C90 48.952 52.4747 48.952 43.116 51.46C37.9533 52.84 33.888 56.9067 32.508 62.0693C30 71.4267 30 90.952 30 90.952C30 90.952 30 110.477 32.508 119.835C33.888 124.999 37.9533 129.064 43.116 130.444C52.4747 132.952 90 132.952 90 132.952C90 132.952 127.525 132.952 136.883 130.444C142.047 129.064 146.112 124.999 147.492 119.835C150 110.477 150 90.952 150 90.952C150 90.952 150 71.4267 147.492 62.0693Z" fill="white"/>
</svg>
