<svg width="278" height="314" viewBox="0 0 278 314" fill="none" xmlns="http://www.w3.org/2000/svg">
<rect x="1.28027" y="37.35" width="275.85" height="275.85" rx="6" fill="white"/>
<rect x="22.095" y="58.1647" width="45.333" height="45.333" stroke="#425466" stroke-width="17.6295"/>
<g opacity="0.8">
<rect x="86.7363" y="49.35" width="13.8517" height="13.8517" fill="#425466"/>
<rect x="111.082" y="49.35" width="80.592" height="13.8517" fill="#425466"/>
</g>
<rect opacity="0.5" x="86.7361" y="73.9053" width="104.938" height="13.8517" fill="#425466"/>
<g opacity="0.6">
<rect x="86.7361" y="98.4607" width="80.592" height="13.8517" fill="#425466"/>
<rect x="177.822" y="98.4607" width="13.8517" height="13.8517" fill="#425466"/>
</g>
<rect x="210.982" y="58.1647" width="45.333" height="45.333" stroke="#425466" stroke-width="17.6295"/>
<g opacity="0.8">
<rect width="13.8517" height="13.8517" transform="matrix(4.37114e-08 1 1 -4.37114e-08 13.2803 136.238)" fill="#425466"/>
<rect width="54.1477" height="13.8517" transform="matrix(6.66927e-08 1 1 -2.86491e-08 13.2803 160.164)" fill="#425466"/>
</g>
<rect opacity="0.5" width="78.0735" height="13.8517" transform="matrix(6.66927e-08 1 1 -2.86491e-08 37.2061 136.238)" fill="#425466"/>
<g opacity="0.6">
<rect width="54.1477" height="13.8517" transform="matrix(6.66927e-08 1 1 -2.86491e-08 61.1318 136.238)" fill="#425466"/>
<rect width="13.8517" height="13.8517" transform="matrix(4.37114e-08 1 1 -4.37114e-08 61.1318 200.46)" fill="#425466"/>
</g>
<rect x="110.705" y="146.775" width="57" height="57" rx="12" fill="#425466"/>
<g opacity="0.8">
<rect x="265.13" y="136.238" width="13.8517" height="13.8517" transform="rotate(90 265.13 136.238)" fill="#425466"/>
<rect x="265.13" y="160.164" width="54.1477" height="13.8517" transform="rotate(90 265.13 160.164)" fill="#425466"/>
</g>
<rect opacity="0.5" x="241.205" y="136.238" width="78.0735" height="13.8517" transform="rotate(90 241.205 136.238)" fill="#425466"/>
<g opacity="0.6">
<rect x="217.279" y="136.238" width="54.1477" height="13.8517" transform="rotate(90 217.279 136.238)" fill="#425466"/>
<rect x="217.279" y="200.46" width="13.8517" height="13.8517" transform="rotate(90 217.279 200.46)" fill="#425466"/>
</g>
<rect x="22.095" y="247.052" width="45.333" height="45.333" stroke="#425466" stroke-width="17.6295"/>
<g opacity="0.6">
<rect x="86.7363" y="238.237" width="13.8517" height="13.8517" fill="#425466"/>
<rect x="111.082" y="238.237" width="80.592" height="13.8517" fill="#425466"/>
</g>
<rect opacity="0.5" x="86.7361" y="262.793" width="104.938" height="13.8517" fill="#425466"/>
<g opacity="0.8">
<rect x="86.7361" y="287.348" width="80.592" height="13.8517" fill="#425466"/>
<rect x="177.822" y="287.348" width="13.8517" height="13.8517" fill="#425466"/>
</g>
<rect x="210.982" y="247.052" width="45.333" height="45.333" stroke="#425466" stroke-width="17.6295"/>
<rect x="55.5" y="6.34995" width="166" height="33" rx="4" fill="#5261F5"/>
<path d="M68.8347 28.3499H66.8507V16.6539H68.8347L72.6107 25.9659L76.3867 16.6539H78.4027V28.3499H76.4187V24.7499C76.4187 22.3979 76.4187 21.7099 76.5307 20.8779L73.5547 28.3499H71.6667L68.7067 20.8939C68.8187 21.5979 68.8347 22.7019 68.8347 24.1579V28.3499ZM83.0553 28.5579C81.3753 28.5579 80.3513 27.5819 80.3513 26.0939C80.3513 24.6379 81.4073 23.7259 83.2793 23.5819L85.6473 23.4059V23.2299C85.6473 22.1579 85.0073 21.7259 84.0153 21.7259C82.8633 21.7259 82.2233 22.2059 82.2233 23.0379H80.5593C80.5593 21.3259 81.9673 20.2059 84.1113 20.2059C86.2393 20.2059 87.5513 21.3579 87.5513 23.5499V28.3499H85.8393L85.6953 27.1819C85.3593 27.9979 84.2873 28.5579 83.0553 28.5579ZM83.6953 27.0859C84.8953 27.0859 85.6633 26.3659 85.6633 25.1499V24.7339L84.0153 24.8619C82.7993 24.9739 82.3353 25.3739 82.3353 26.0139C82.3353 26.7339 82.8153 27.0859 83.6953 27.0859ZM92.7169 28.5579C90.4289 28.5579 89.0049 26.8779 89.0049 24.4299C89.0049 21.9659 90.4449 20.2059 92.8289 20.2059C93.9329 20.2059 94.9089 20.6699 95.4049 21.4539V16.4459H97.3409V28.3499H95.5489L95.4209 27.1179C94.9409 28.0299 93.9169 28.5579 92.7169 28.5579ZM93.1489 26.7659C94.5089 26.7659 95.3889 25.7899 95.3889 24.3659C95.3889 22.9419 94.5089 21.9499 93.1489 21.9499C91.7889 21.9499 90.9569 22.9579 90.9569 24.3659C90.9569 25.7739 91.7889 26.7659 93.1489 26.7659ZM102.911 28.5579C100.559 28.5579 98.9112 26.8459 98.9112 24.3979C98.9112 21.9179 100.527 20.2059 102.847 20.2059C105.215 20.2059 106.719 21.7899 106.719 24.2539V24.8459L100.767 24.8619C100.911 26.2539 101.647 26.9579 102.943 26.9579C104.015 26.9579 104.719 26.5419 104.943 25.7899H106.751C106.415 27.5179 104.975 28.5579 102.911 28.5579ZM102.863 21.8059C101.711 21.8059 101.007 22.4299 100.815 23.6139H104.783C104.783 22.5259 104.031 21.8059 102.863 21.8059ZM113.57 18.8619C112.898 18.8619 112.37 18.3339 112.37 17.6779C112.37 17.0219 112.898 16.5099 113.57 16.5099C114.21 16.5099 114.738 17.0219 114.738 17.6779C114.738 18.3339 114.21 18.8619 113.57 18.8619ZM112.594 28.3499V20.4459H114.546V28.3499H112.594ZM118.515 28.3499H116.563V20.4459H118.371L118.531 21.4699C119.027 20.6699 119.987 20.2059 121.059 20.2059C123.043 20.2059 124.067 21.4379 124.067 23.4859V28.3499H122.115V23.9499C122.115 22.6219 121.459 21.9819 120.451 21.9819C119.251 21.9819 118.515 22.8139 118.515 24.0939V28.3499ZM139.769 29.2299L138.489 27.7899C137.657 28.2699 136.665 28.5419 135.561 28.5419C132.217 28.5419 129.913 26.0619 129.913 22.4939C129.913 18.9419 132.233 16.4459 135.577 16.4459C138.921 16.4459 141.257 18.9259 141.257 22.4939C141.257 24.1739 140.745 25.6139 139.833 26.6699L141.081 28.0619L139.769 29.2299ZM139.097 22.4939C139.097 19.9979 137.721 18.4139 135.577 18.4139C133.433 18.4139 132.057 19.9979 132.057 22.4939C132.057 24.9899 133.433 26.5739 135.577 26.5739C136.153 26.5739 136.665 26.4619 137.129 26.2379L135.577 24.4939L136.873 23.3259L138.425 25.0699C138.857 24.3979 139.097 23.5179 139.097 22.4939ZM145.211 28.3499H143.163V16.6539H147.627C150.283 16.6539 151.835 17.9979 151.835 20.3019C151.835 21.8699 151.099 22.9899 149.723 23.5499L151.947 28.3499H149.707L147.723 23.9819H145.211V28.3499ZM145.211 18.4779V22.1739H147.627C148.923 22.1739 149.691 21.4859 149.691 20.3019C149.691 19.1339 148.923 18.4779 147.627 18.4779H145.211ZM155.562 28.3499H153.626V16.4459H155.562V28.3499ZM159.962 28.5579C158.282 28.5579 157.258 27.5819 157.258 26.0939C157.258 24.6379 158.314 23.7259 160.186 23.5819L162.554 23.4059V23.2299C162.554 22.1579 161.914 21.7259 160.922 21.7259C159.77 21.7259 159.13 22.2059 159.13 23.0379H157.466C157.466 21.3259 158.874 20.2059 161.018 20.2059C163.146 20.2059 164.458 21.3579 164.458 23.5499V28.3499H162.746L162.602 27.1819C162.266 27.9979 161.194 28.5579 159.962 28.5579ZM160.602 27.0859C161.802 27.0859 162.57 26.3659 162.57 25.1499V24.7339L160.922 24.8619C159.706 24.9739 159.242 25.3739 159.242 26.0139C159.242 26.7339 159.722 27.0859 160.602 27.0859ZM168.183 28.3499H166.375V16.4459H168.327V21.5979C168.839 20.7179 169.895 20.1899 171.095 20.1899C173.351 20.1899 174.727 21.9499 174.727 24.4459C174.727 26.8779 173.239 28.5579 170.967 28.5579C169.783 28.5579 168.775 28.0299 168.311 27.1179L168.183 28.3499ZM168.343 24.3659C168.343 25.7899 169.223 26.7659 170.567 26.7659C171.943 26.7659 172.759 25.7739 172.759 24.3659C172.759 22.9579 171.943 21.9499 170.567 21.9499C169.223 21.9499 168.343 22.9419 168.343 24.3659ZM177.109 28.5419C176.405 28.5419 175.813 27.9659 175.813 27.2779C175.813 26.5739 176.405 25.9979 177.109 25.9979C177.813 25.9979 178.405 26.5739 178.405 27.2779C178.405 27.9659 177.813 28.5419 177.109 28.5419ZM179.505 24.3819C179.505 21.9339 181.121 20.2059 183.457 20.2059C185.617 20.2059 187.089 21.4059 187.297 23.3099H185.345C185.121 22.4139 184.465 21.9499 183.537 21.9499C182.289 21.9499 181.457 22.8939 181.457 24.3819C181.457 25.8699 182.225 26.7979 183.473 26.7979C184.449 26.7979 185.137 26.3179 185.345 25.4539H187.313C187.073 27.2939 185.537 28.5579 183.473 28.5579C181.073 28.5579 179.505 26.8939 179.505 24.3819ZM188.302 24.3819C188.302 21.9179 190.078 20.2219 192.526 20.2219C194.974 20.2219 196.75 21.9179 196.75 24.3819C196.75 26.8459 194.974 28.5419 192.526 28.5419C190.078 28.5419 188.302 26.8459 188.302 24.3819ZM190.254 24.3819C190.254 25.8219 191.182 26.7979 192.526 26.7979C193.87 26.7979 194.798 25.8219 194.798 24.3819C194.798 22.9419 193.87 21.9659 192.526 21.9659C191.182 21.9659 190.254 22.9419 190.254 24.3819ZM200.249 28.3499H198.297V20.4459H200.089L200.249 21.3739C200.649 20.7179 201.449 20.2059 202.585 20.2059C203.785 20.2059 204.617 20.7979 205.033 21.7099C205.433 20.7979 206.361 20.2059 207.561 20.2059C209.481 20.2059 210.537 21.3579 210.537 23.1819V28.3499H208.601V23.6939C208.601 22.5579 207.993 21.9659 207.065 21.9659C206.121 21.9659 205.401 22.5739 205.401 23.8699V28.3499H203.449V23.6779C203.449 22.5739 202.857 21.9819 201.929 21.9819C201.001 21.9819 200.249 22.5899 200.249 23.8699V28.3499Z" fill="#F5F5F5"/>
<path d="M138.914 44.8357C138.286 45.5214 136.714 45.5214 136.086 44.8357L129.721 37.8928C129.093 37.2071 129.878 36.35 131.136 36.35L143.864 36.35C145.122 36.35 145.907 37.2071 145.279 37.8928L138.914 44.8357Z" fill="#5261F5"/>
</svg>
