<svg width="374" height="644" viewBox="0 0 374 644" fill="none" xmlns="http://www.w3.org/2000/svg">
<path d="M130.135 402.849C144.849 373.826 160.978 347.987 160.978 347.987L148.154 249.441C148.154 249.441 111.306 269.335 92.1366 299.304C88.2218 305.379 52.6507 388.063 49.6105 499.236L130.135 402.849Z" fill="#F4F5FF"/>
<path d="M49.948 460.425C50.0155 460.425 50.0829 460.425 50.1504 460.425C50.8929 460.29 51.4329 459.547 51.2979 458.805C55.6881 434.299 61.0175 403.794 67.3623 372.273C73.3695 342.574 83.1567 315.643 94.2262 298.431C111.641 271.297 140.057 254.693 148.157 251.116L160.914 349.189C159.496 352.361 149.101 375.446 135.535 402.242C135.197 402.917 135.467 403.794 136.142 404.132C136.817 404.469 137.694 404.199 138.032 403.524C152.611 374.771 163.546 350.269 163.613 349.999C163.748 349.729 163.748 349.527 163.748 349.257L150.721 248.956C150.654 248.551 150.384 248.146 150.046 247.943C149.641 247.741 149.237 247.673 148.832 247.876C148.427 248.078 112.113 265.627 91.9313 297.014C80.6592 314.496 70.7371 341.764 64.6624 371.868C58.2501 403.659 54.0006 428.224 48.5306 459.345C48.6656 459.952 49.273 460.425 49.948 460.425Z" fill="#5261F5"/>
<path d="M103.946 509.292C103.946 509.292 200.467 553.368 200.399 576.25C200.399 582.729 153.084 582.054 153.084 582.054L103.946 509.292Z" fill="#3641AD"/>
<path d="M124.33 330.965C124.937 330.965 125.477 330.56 125.68 329.952C125.747 329.75 131.35 312.268 142.419 300.051C152.881 288.509 169.216 277.372 169.351 277.305C170.026 276.9 170.161 275.955 169.756 275.347C169.351 274.672 168.406 274.537 167.798 274.942C167.663 275.077 150.991 286.349 140.327 298.161C128.785 310.851 123.183 328.4 122.98 329.142C122.778 329.885 123.183 330.695 123.925 330.897C124.06 330.965 124.195 330.965 124.33 330.965Z" fill="#5261F5"/>
<path d="M239.95 367.898C239.95 367.898 253.45 439.783 197.767 472.979C190.072 476.826 178.196 482.896 174.821 492.346C174.821 492.346 156.391 500.294 156.391 640.351L47.9231 631.239C51.2305 609.572 17.6168 625.793 21.1267 604.936C39.3509 497.548 73.2319 363.413 73.2319 363.413L239.95 367.898Z" fill="#F4F5FF"/>
<path d="M161.858 639.9C162.668 639.9 163.276 639.225 163.276 638.415C161.859 603.789 160.846 614.386 160.171 587.522L160.171 586.307C160.171 585.835 160.171 585.295 160.104 584.822C159.766 571.93 160.914 559.916 160.779 549.049C160.779 549.049 160.779 549.048 160.779 548.981C163.291 509.558 174.143 495.186 174.211 495.118C174.211 495.051 174.821 494.101 174.821 494.034C177.793 489.709 181.635 485.601 187.102 480.674C188.452 479.459 189.87 478.379 191.287 477.299C191.76 476.961 192.165 476.691 192.637 476.354C192.907 476.219 193.11 476.016 193.38 475.881L193.447 475.814C194.19 475.342 195 474.869 195.675 474.532C195.877 474.397 196.08 474.329 196.282 474.194C196.282 474.194 196.35 474.127 196.417 474.127C196.417 474.127 196.485 474.126 196.485 474.059C196.755 473.924 197.025 473.789 197.295 473.654L197.362 473.587C201.277 471.562 204.989 469.267 208.364 466.702C210.052 465.419 211.739 464.069 213.359 462.652C217.341 459.142 220.919 455.227 224.091 450.975C224.091 450.907 224.158 450.907 224.158 450.84C233.406 438.353 239.345 422.829 241.708 404.604L241.708 404.537C242.585 397.99 242.923 391.172 242.788 384.22C242.585 374.366 241.505 367.886 241.438 367.683C241.303 366.941 240.56 366.401 239.818 366.536C239.075 366.671 238.535 367.413 238.67 368.156C238.67 368.223 239.818 374.636 239.953 384.288C240.088 391.037 239.683 397.72 238.873 404.132L238.873 404.199C236.578 422.019 230.841 437.138 221.796 449.288C221.796 449.355 221.729 449.355 221.729 449.422C218.691 453.472 215.249 457.252 211.469 460.56C209.917 461.909 208.297 463.259 206.677 464.474C203.369 466.904 199.792 469.199 195.945 471.157L195.877 471.224C195.675 471.359 195.405 471.427 195.202 471.562C195.202 471.562 195.135 471.562 195.135 471.629C195.135 471.629 195.067 471.629 195.067 471.697C194.797 471.832 194.595 471.967 194.392 472.034C193.65 472.439 192.84 472.912 192.03 473.384C192.03 473.384 191.962 473.384 191.962 473.452C191.692 473.654 191.422 473.789 191.085 473.992C190.612 474.329 190.14 474.666 189.667 475.004C188.115 476.084 186.63 477.299 185.213 478.581C181.635 481.754 175.496 487.284 171.376 494.848C171.308 495.793 160.779 506.858 157.944 549.049C157.944 549.049 157.944 549.049 157.944 549.116C158.079 559.983 156.931 572.065 157.269 584.89C157.269 585.362 157.269 585.902 157.336 586.374L157.336 587.589C158.011 614.453 159.024 603.856 160.441 638.482C160.441 639.292 161.116 639.9 161.858 639.9Z" fill="#5261F5"/>
<path d="M26.3914 610.741C27.0664 610.741 27.6739 610.268 27.8089 609.594C31.8587 586.239 34.0186 566.8 35.976 549.588C37.866 532.984 39.6209 517.325 42.7258 501.26C43.9407 495.051 45.0882 489.178 46.1006 483.779C48.868 469.807 51.5005 456.51 53.9304 444.36C53.9304 444.293 53.9304 444.293 53.9304 444.225C54.2004 442.875 54.3354 442.133 54.3354 442.133C54.4703 441.39 53.9979 440.648 53.2554 440.445C52.5129 440.31 51.7705 440.783 51.568 441.525C51.568 441.525 51.4329 442.268 51.1629 443.685C48.6655 455.902 46.0332 469.132 43.3333 483.171C42.2533 488.571 41.1733 494.376 39.9584 500.653C36.8535 516.852 35.0986 532.512 33.2087 549.183C31.2512 566.328 29.0913 585.699 25.0415 608.986C24.9065 609.728 25.4465 610.471 26.1889 610.606C26.2564 610.673 26.324 610.741 26.3914 610.741Z" fill="#5261F5"/>
<path d="M200.467 576.25L200.467 576.317L200.467 576.452L183.323 643.814L-1.40135e-05 643.814C-1.40135e-05 643.814 33.4111 522.387 38.6759 501.463C41.7133 489.381 43.8057 482.834 44.6832 483.576C46.3706 485.061 50.0829 490.663 55.8877 498.628C71.2771 519.822 88.2189 550.668 136.817 570.107C145.457 573.55 154.231 575.98 162.398 577.6C163.411 577.802 164.423 578.005 165.436 578.14C184.065 581.38 198.847 580.097 200.467 576.25Z" fill="#5261F5"/>
<path d="M134.345 338.662C134.615 338.662 134.953 338.594 135.223 338.392C135.83 337.919 135.965 337.042 135.493 336.434C129.958 329.212 121.319 328.402 117.674 327.997C117.201 327.93 116.661 327.93 116.459 327.862C115.919 327.592 115.176 327.727 114.771 328.2C114.231 328.807 114.299 329.685 114.906 330.225C115.379 330.63 115.986 330.697 117.471 330.832C121.049 331.17 128.541 331.912 133.333 338.122C133.468 338.527 133.873 338.662 134.345 338.662Z" fill="#5261F5"/>
<rect x="146.656" y="1.80484" width="225.441" height="403.634" rx="17.5493" fill="white"/>
<circle opacity="0.6" cx="259.376" cy="14.2918" r="3.03738" fill="#5261F5"/>
<rect x="209.428" y="39.6032" width="99.896" height="99.896" rx="4.72481" fill="white"/>
<rect x="220.143" y="50.3187" width="15.1869" height="15.1869" stroke="#5261F5" stroke-width="5.90601"/>
<g opacity="0.8">
<rect x="241.798" y="47.3657" width="4.64044" height="4.64044" fill="#5261F5"/>
<rect x="249.955" y="47.3657" width="26.9989" height="4.64044" fill="#5261F5"/>
</g>
<rect opacity="0.5" x="241.799" y="55.5918" width="35.1549" height="4.64044" fill="#5261F5"/>
<g opacity="0.6">
<rect x="241.799" y="63.8179" width="26.9989" height="4.64044" fill="#5261F5"/>
<rect x="272.313" y="63.8179" width="4.64044" height="4.64044" fill="#5261F5"/>
</g>
<rect x="283.422" y="50.3187" width="15.1869" height="15.1869" stroke="#5261F5" stroke-width="5.90601"/>
<g opacity="0.8">
<rect width="4.64044" height="4.64044" transform="matrix(4.37114e-08 1 1 -4.37114e-08 217.19 76.4736)" fill="#5261F5"/>
<rect width="18.1399" height="4.64044" transform="matrix(6.66927e-08 1 1 -2.86491e-08 217.19 84.4893)" fill="#5261F5"/>
</g>
<rect opacity="0.5" width="26.1552" height="4.64044" transform="matrix(6.66927e-08 1 1 -2.86491e-08 225.206 76.4736)" fill="#5261F5"/>
<g opacity="0.6">
<rect width="18.1399" height="4.64044" transform="matrix(6.66927e-08 1 1 -2.86491e-08 233.221 76.4736)" fill="#5261F5"/>
<rect width="4.64044" height="4.64044" transform="matrix(4.37114e-08 1 1 -4.37114e-08 233.221 97.9883)" fill="#5261F5"/>
</g>
<rect x="247.353" y="77.5283" width="24.0459" height="24.0459" rx="5.0623" fill="#5261F5"/>
<g opacity="0.8">
<rect x="301.562" y="76.4736" width="4.64044" height="4.64044" transform="rotate(90 301.562 76.4736)" fill="#5261F5"/>
<rect x="301.562" y="84.4893" width="18.1399" height="4.64044" transform="rotate(90 301.562 84.4893)" fill="#5261F5"/>
</g>
<rect opacity="0.5" x="293.547" y="76.4736" width="26.1552" height="4.64044" transform="rotate(90 293.547 76.4736)" fill="#5261F5"/>
<g opacity="0.6">
<rect x="285.531" y="76.4736" width="18.1399" height="4.64044" transform="rotate(90 285.531 76.4736)" fill="#5261F5"/>
<rect x="285.531" y="97.9883" width="4.64044" height="4.64044" transform="rotate(90 285.531 97.9883)" fill="#5261F5"/>
</g>
<rect x="220.143" y="113.597" width="15.1869" height="15.1869" stroke="#5261F5" stroke-width="5.90601"/>
<g opacity="0.6">
<rect x="241.798" y="110.644" width="4.64044" height="4.64044" fill="#5261F5"/>
<rect x="249.955" y="110.644" width="26.9989" height="4.64044" fill="#5261F5"/>
</g>
<rect opacity="0.5" x="241.799" y="118.871" width="35.1549" height="4.64044" fill="#5261F5"/>
<g opacity="0.8">
<rect x="241.799" y="127.097" width="26.9989" height="4.64044" fill="#5261F5"/>
<rect x="272.313" y="127.097" width="4.64044" height="4.64044" fill="#5261F5"/>
</g>
<rect x="283.422" y="113.597" width="15.1869" height="15.1869" stroke="#5261F5" stroke-width="5.90601"/>
<rect x="209.428" y="39.6032" width="99.896" height="99.896" rx="4.72481" stroke="#DFE4EA" stroke-width="1.34995"/>
<rect x="1.01246" y="-1.01246" width="193.717" height="38.1744" rx="3.03738" transform="matrix(1 0 0 -1 161.505 194.548)" fill="#F0F1FF"/>
<path d="M185.564 178.208H178.955V185.473H175.844L175.844 167.711L186.827 167.711V170.578L178.955 170.578L178.955 175.413H185.564L185.564 178.208ZM192.377 185.473H189.267L189.267 167.711L196.046 167.711C200.08 167.711 202.437 169.752 202.437 173.251C202.437 175.632 201.319 177.333 199.229 178.183L202.607 185.473L199.205 185.473L196.192 178.84H192.377V185.473ZM192.377 170.481L192.377 176.094H196.046C198.014 176.094 199.181 175.049 199.181 173.251C199.181 171.477 198.014 170.481 196.046 170.481L192.377 170.481ZM216.212 185.473H205.181L205.181 167.711L216.212 167.711V170.578H208.291L208.291 175.146L215.386 175.146V177.892H208.291V182.606L216.212 182.606V185.473ZM230.252 185.473L219.22 185.473L219.22 167.711H230.252V170.578H222.33L222.33 175.146H229.425V177.892H222.33V182.606H230.252V185.473ZM246.952 185.765C241.777 185.765 238.424 182.168 238.424 176.604C238.424 171.088 241.898 167.419 247.098 167.419C251.302 167.419 254.437 169.873 255.044 173.688H251.764C251.156 171.623 249.382 170.408 247.025 170.408C243.745 170.408 241.68 172.789 241.68 176.58C241.68 180.346 243.769 182.776 247.025 182.776C249.431 182.776 251.278 181.512 251.861 179.544H255.093C254.412 183.286 251.156 185.765 246.952 185.765ZM273.725 176.58C273.725 181.974 270.177 185.765 265.074 185.765C259.996 185.765 256.497 181.998 256.497 176.58C256.497 171.185 260.02 167.395 265.099 167.395C270.177 167.395 273.725 171.161 273.725 176.58ZM270.445 176.58C270.445 172.789 268.355 170.383 265.099 170.383C261.843 170.383 259.753 172.789 259.753 176.58C259.753 180.37 261.843 182.776 265.099 182.776C268.355 182.776 270.445 180.322 270.445 176.58ZM276.134 178.985V167.711H279.244L279.244 178.791C279.244 181.342 280.629 182.752 283.156 182.752C285.683 182.752 287.093 181.318 287.093 178.791L287.093 167.711H290.203V178.985C290.203 183.14 287.481 185.765 283.156 185.765C278.855 185.765 276.134 183.165 276.134 178.985ZM300.687 179.35L296.774 179.35V185.473H293.664V167.711H300.687C304.258 167.711 306.567 170.043 306.567 173.518C306.567 176.944 304.234 179.35 300.687 179.35ZM300.079 170.481H296.774V176.58H300.03C302.169 176.58 303.311 175.438 303.311 173.494C303.311 171.55 302.144 170.481 300.079 170.481ZM325.026 176.58C325.026 181.974 321.479 185.765 316.376 185.765C311.297 185.765 307.798 181.998 307.798 176.58C307.798 171.185 311.322 167.395 316.4 167.395C321.479 167.395 325.026 171.161 325.026 176.58ZM321.746 176.58C321.746 172.789 319.656 170.383 316.4 170.383C313.144 170.383 311.054 172.789 311.054 176.58C311.054 180.37 313.144 182.776 316.4 182.776C319.656 182.776 321.746 180.322 321.746 176.58ZM330.618 185.473L327.556 185.473L327.556 167.711H330.642L338.977 180.297V167.711L342.039 167.711V185.473H338.977L330.618 172.886V185.473Z" fill="#5261F5"/>
<rect x="1.01246" y="-1.01246" width="193.717" height="38.1744" rx="3.03738" transform="matrix(1 0 0 -1 161.505 194.548)" stroke="#5261F5" stroke-width="2.02492"/>
<circle opacity="0.3" cx="226.302" cy="230.322" r="12.1495" fill="#5261F5"/>
<circle opacity="0.5" cx="259.376" cy="230.322" r="12.1495" fill="#5261F5"/>
<circle opacity="0.7" cx="292.45" cy="230.322" r="12.1495" fill="#5261F5"/>
<rect width="164.598" height="35.1993" rx="17.5997" transform="matrix(1 0 0 -1 177.077 299.27)" fill="#5261F5"/>
<path d="M202.008 279.633C202.008 277.559 203.725 276.118 206.22 276.118C208.617 276.118 210.14 277.446 210.205 279.584H208.131C208.083 278.564 207.354 277.964 206.187 277.964C204.907 277.964 204.081 278.58 204.081 279.568C204.081 280.41 204.535 280.88 205.523 281.107L207.386 281.512C209.411 281.949 210.399 282.986 210.399 284.752C210.399 286.955 208.682 288.381 206.074 288.381C203.547 288.381 201.894 287.036 201.846 284.914H203.919C203.936 285.918 204.746 286.518 206.074 286.518C207.451 286.518 208.326 285.918 208.326 284.93C208.326 284.136 207.921 283.667 206.949 283.456L205.069 283.035C203.061 282.597 202.008 281.447 202.008 279.633ZM211.271 284.152C211.271 281.674 212.907 279.924 215.272 279.924C217.459 279.924 218.949 281.139 219.16 283.067H217.183C216.957 282.16 216.292 281.69 215.353 281.69C214.089 281.69 213.247 282.646 213.247 284.152C213.247 285.659 214.024 286.599 215.288 286.599C216.276 286.599 216.973 286.113 217.183 285.238H219.176C218.933 287.101 217.378 288.381 215.288 288.381C212.858 288.381 211.271 286.696 211.271 284.152ZM222.785 288.381C221.084 288.381 220.047 287.392 220.047 285.886C220.047 284.412 221.117 283.488 223.012 283.343L225.409 283.164V282.986C225.409 281.901 224.761 281.463 223.757 281.463C222.591 281.463 221.943 281.949 221.943 282.792L220.258 282.792C220.258 281.058 221.684 279.924 223.854 279.924C226.009 279.924 227.337 281.091 227.337 283.31V288.17H225.604L225.458 286.987C225.118 287.814 224.032 288.381 222.785 288.381ZM223.433 286.89C224.648 286.89 225.426 286.161 225.426 284.93V284.509L223.757 284.638C222.526 284.752 222.056 285.157 222.056 285.805C222.056 286.534 222.542 286.89 223.433 286.89ZM231.012 288.17H229.036V280.167H230.866L231.028 281.204C231.53 280.394 232.502 279.924 233.588 279.924C235.596 279.924 236.633 281.172 236.633 283.245L236.633 288.17H234.657L234.657 283.715C234.657 282.371 233.993 281.723 232.972 281.723C231.757 281.723 231.012 282.565 231.012 283.861V288.17ZM245.177 288.17H243.2V281.82H241.661V280.167H243.2L243.2 277.673H245.177V280.167H246.732V281.82H245.177L245.177 288.17ZM247.169 284.152C247.169 281.658 248.967 279.941 251.445 279.941C253.924 279.941 255.722 281.658 255.722 284.152C255.722 286.647 253.924 288.364 251.445 288.364C248.967 288.364 247.169 286.647 247.169 284.152ZM249.145 284.152C249.145 285.61 250.084 286.599 251.445 286.599C252.806 286.599 253.745 285.61 253.745 284.152C253.745 282.695 252.806 281.706 251.445 281.706C250.084 281.706 249.145 282.695 249.145 284.152ZM266.19 280.135V281.966H265.461C264.036 281.966 263.145 282.727 263.145 284.282V288.17H261.169V280.184H263.032L263.145 281.35C263.485 280.556 264.246 280.022 265.316 280.022C265.591 280.022 265.866 280.054 266.19 280.135ZM270.596 288.381C268.215 288.381 266.546 286.647 266.546 284.169C266.546 281.658 268.183 279.924 270.531 279.924C272.929 279.924 274.452 281.528 274.452 284.023V284.622L268.426 284.638C268.571 286.048 269.316 286.761 270.629 286.761C271.714 286.761 272.427 286.339 272.654 285.578H274.484C274.144 287.328 272.686 288.381 270.596 288.381ZM270.548 281.544C269.381 281.544 268.669 282.176 268.474 283.375H272.492C272.492 282.273 271.73 281.544 270.548 281.544ZM279.079 288.381C276.762 288.381 275.321 286.68 275.321 284.201C275.321 281.706 276.779 279.924 279.192 279.924C280.31 279.924 281.298 280.394 281.8 281.188V276.118H283.76V288.17H281.946L281.817 286.923C281.331 287.846 280.294 288.381 279.079 288.381ZM279.516 286.566C280.893 286.566 281.784 285.578 281.784 284.136C281.784 282.695 280.893 281.69 279.516 281.69C278.139 281.69 277.297 282.711 277.297 284.136C277.297 285.562 278.139 286.566 279.516 286.566ZM289.157 288.381C286.776 288.381 285.107 286.647 285.107 284.169C285.107 281.658 286.743 279.924 289.092 279.924C291.49 279.924 293.013 281.528 293.013 284.023V284.622L286.986 284.638C287.132 286.048 287.877 286.761 289.19 286.761C290.275 286.761 290.988 286.339 291.214 285.578H293.045C292.705 287.328 291.247 288.381 289.157 288.381ZM289.109 281.544C287.942 281.544 287.229 282.176 287.035 283.375H291.052C291.052 282.273 290.291 281.544 289.109 281.544ZM297.931 288.381C295.55 288.381 293.882 286.647 293.882 284.169C293.882 281.658 295.518 279.924 297.867 279.924C300.264 279.924 301.787 281.528 301.787 284.023V284.622L295.761 284.638C295.906 286.048 296.652 286.761 297.964 286.761C299.049 286.761 299.762 286.339 299.989 285.578H301.819C301.479 287.328 300.021 288.381 297.931 288.381ZM297.883 281.544C296.716 281.544 296.004 282.176 295.809 283.375L299.827 283.375C299.827 282.273 299.065 281.544 297.883 281.544ZM305.102 288.17H303.126V280.167H304.94L305.102 281.107C305.507 280.443 306.317 279.924 307.467 279.924C308.682 279.924 309.524 280.524 309.945 281.447C310.35 280.524 311.29 279.924 312.505 279.924C314.449 279.924 315.518 281.091 315.518 282.938V288.17H313.558L313.558 283.456C313.558 282.306 312.942 281.706 312.003 281.706C311.047 281.706 310.318 282.322 310.318 283.634V288.17H308.342V283.44C308.342 282.322 307.742 281.723 306.803 281.723C305.863 281.723 305.102 282.338 305.102 283.634V288.17Z" fill="white"/>
<rect opacity="0.6" x="240.139" y="380.802" width="38.4734" height="14.1744" rx="4.38732" stroke="#5261F5" stroke-width="2.02492"/>
<rect x="146.656" y="1.80484" width="225.441" height="403.634" rx="17.5493" stroke="#5261F5" stroke-width="2.69989"/>
<path d="M112.721 475.679C112.721 475.679 77.6894 506.39 72.3572 490.528C54.0654 436.125 86.3291 394.682 106.038 367.48C118.863 349.864 194.395 274.33 208.907 297.279C217.444 310.778 202.489 333.714 185.283 352.289C169.421 366.801 151.872 380.975 152.209 387.388C159.291 418.6 153.891 422.515 150.516 432.1C130.942 464.498 112.721 475.679 112.721 475.679Z" fill="#F4F5FF"/>
<path d="M112.72 477.096C112.855 477.096 112.923 477.096 113.058 477.029C114.475 476.691 134.455 461.775 149.641 436.666C156.999 424.516 158.686 410.409 154.636 394.817C149.844 376.323 181.028 363.229 194.865 344.059C208.432 325.228 216.531 312.808 210.052 297.554C207.735 292.101 203.774 291.074 201.142 290.736C180.353 287.969 114.475 354.724 103.338 368.966C102.866 369.573 102.933 370.451 103.608 370.923C104.216 371.396 105.093 371.328 105.566 370.653C111.236 363.431 130.877 343.182 153.219 323.878C179.07 301.536 192.907 292.424 200.804 293.504C202.424 293.706 205.614 294.242 207.487 298.634C213.359 312.403 205.732 324.215 192.637 342.372C178.463 362.081 146.874 375.716 152.004 395.492C155.851 410.342 154.231 423.639 147.347 435.181C132.835 459.277 112.855 474.194 112.585 474.262C111.843 474.464 111.371 475.207 111.506 475.949C111.506 476.691 112.113 477.096 112.72 477.096Z" fill="#5261F5"/>
</svg>
