<svg width="288" height="310" viewBox="0 0 288 310" fill="none" xmlns="http://www.w3.org/2000/svg">
<path d="M62.4563 309.285C51.9107 309.458 41.5395 308.247 31.604 304.875C25.5904 302.886 20.0126 300.118 15.3063 295.795C12.866 293.546 10.8615 291.039 9.37988 288.098C7.89828 285.072 6.50382 282.132 5.02222 279.105C2.93054 274.781 1.79754 270.198 1.44893 265.528C1.10032 261.118 0.751702 256.708 1.01316 252.298C1.44893 244.515 3.27915 236.992 6.15521 229.728C8.15974 224.626 10.8615 219.87 13.7376 215.2C15.7421 211.914 17.7466 208.714 19.7511 205.428C25.5033 195.829 33.2599 188.047 42.0624 181.215C49.819 175.162 58.1858 170.06 66.4653 164.871C89.1252 150.949 111.698 137.026 134.445 123.277C153.27 111.862 171.049 98.9774 187.608 84.4496C199.548 73.8997 211.401 63.3497 223.341 52.7998C233.625 43.7199 244.258 34.8994 255.762 27.2896C268.661 18.8151 281.996 11.2053 296.376 5.67086C303.61 2.81719 311.018 0.82826 318.861 0.395885C326.444 -0.0364904 333.765 1.00121 340.824 3.59546C349.539 6.70856 355.814 12.7618 360.782 20.1987C366.447 28.5867 370.718 37.5802 373.942 47.1789C378.213 59.9772 379.782 73.2079 379.782 86.6115C379.782 94.1348 378.039 101.399 375.598 108.576C372.635 117.483 368.452 125.785 363.31 133.654C353.113 149.219 340.737 162.882 326.531 175.075C314.155 185.625 300.821 194.705 286.702 202.661C271.537 211.136 256.024 219.091 240.511 226.788C224.213 234.916 208.002 243.218 192.228 252.471C174.448 262.848 156.495 272.965 138.715 283.256C135.839 284.899 132.963 286.715 130.174 288.444C120.239 294.411 110.042 299.772 98.9735 303.318C90.8683 305.912 82.6759 308.074 74.1348 308.679C70.1258 309.025 66.291 309.112 62.4563 309.285Z" fill="#425466"/>
<mask id="mask0_1176_7165" style="mask-type:alpha" maskUnits="userSpaceOnUse" x="0" y="0" width="380" height="310">
<path d="M62.4563 309.285C51.9107 309.458 41.5395 308.247 31.604 304.875C25.5904 302.886 20.0126 300.118 15.3063 295.795C12.866 293.546 10.8615 291.039 9.37988 288.098C7.89828 285.072 6.50382 282.132 5.02222 279.105C2.93054 274.781 1.79754 270.198 1.44893 265.528C1.10032 261.118 0.751702 256.708 1.01316 252.298C1.44893 244.515 3.27915 236.992 6.15521 229.728C8.15974 224.626 10.8615 219.87 13.7376 215.2C15.7421 211.914 17.7466 208.714 19.7511 205.428C25.5033 195.829 33.2599 188.047 42.0624 181.215C49.819 175.162 58.1858 170.06 66.4653 164.871C89.1252 150.949 111.698 137.026 134.445 123.277C153.27 111.862 171.049 98.9774 187.608 84.4496C199.548 73.8997 211.401 63.3497 223.341 52.7998C233.625 43.7199 244.258 34.8994 255.762 27.2896C268.661 18.8151 281.996 11.2053 296.376 5.67086C303.61 2.81719 311.018 0.82826 318.861 0.395885C326.444 -0.0364904 333.765 1.00121 340.824 3.59546C349.539 6.70856 355.814 12.7618 360.782 20.1987C366.447 28.5867 370.718 37.5802 373.942 47.1789C378.213 59.9772 379.782 73.2079 379.782 86.6115C379.782 94.1348 378.039 101.399 375.598 108.576C372.635 117.483 368.452 125.785 363.31 133.654C353.113 149.219 340.737 162.882 326.531 175.075C314.155 185.625 300.821 194.705 286.702 202.661C271.537 211.136 256.024 219.091 240.511 226.788C224.213 234.916 208.002 243.218 192.228 252.471C174.448 262.848 156.495 272.965 138.715 283.256C135.839 284.899 132.963 286.715 130.174 288.444C120.239 294.411 110.042 299.772 98.9735 303.318C90.8683 305.912 82.6759 308.074 74.1348 308.679C70.1258 309.025 66.291 309.112 62.4563 309.285Z" fill="black"/>
</mask>
<g mask="url(#mask0_1176_7165)">
<path d="M437.826 101.399C436.518 101.485 435.56 101.658 434.601 101.572C431.202 101.485 427.803 101.312 424.404 101.226C405.318 100.966 386.58 103.474 368.365 108.922C342.829 116.618 318.077 126.303 295.243 140.226C258.987 162.45 227.612 190.036 202.337 224.28C185.778 246.763 170.091 269.939 155.362 293.633C142.289 314.56 128.431 334.968 113.092 354.338C108.909 359.7 104.639 364.975 99.6708 369.644C97.3177 371.893 94.7031 373.882 92.0885 375.784C90.7812 376.735 89.1252 377.427 87.5565 377.946C83.6346 379.156 80.2356 377.859 78.4925 374.141C77.5339 372.152 76.8366 369.817 76.5752 367.655C76.1394 364.283 75.9651 360.91 76.1394 357.538C78.0568 329.779 84.5933 303.059 96.359 277.721C103.593 262.156 112.831 247.714 123.028 233.878C140.546 210.098 160.852 188.911 183.077 169.455C212.36 143.771 244.868 122.931 279.991 106.068C298.903 96.9884 317.903 88.3409 336.902 79.434C351.108 72.7754 365.14 65.8574 378.474 57.7288C388.846 51.4161 398.694 44.4116 407.322 35.8506C410.895 32.3051 414.294 28.5002 417.083 24.2629C419.611 20.458 421.702 16.3937 422.487 11.8105C422.923 9.21628 422.923 6.62202 421.877 4.02778C420.918 1.52 419.175 -0.295975 416.735 -1.42015C414.382 -2.54432 411.854 -2.9767 409.24 -3.14965C401.396 -3.49555 393.901 -1.85252 386.58 0.828201C376.557 4.54663 367.232 9.64866 357.993 14.9236C339.691 25.3871 322.26 37.2342 305.353 49.8596C285.395 64.8197 264.826 78.7422 243.561 91.7135C231.97 98.8044 220.553 106.068 208.961 113.073C183.687 128.379 160.765 146.625 140.11 167.812C122.418 185.971 106.294 205.342 91.3912 225.75C83.286 236.732 75.5293 247.974 67.6855 259.216C54.0025 278.673 39.8836 297.87 24.3703 315.943C15.1321 326.753 5.37089 337.13 -5.61044 346.296C-12.9313 352.436 -20.6008 358.057 -29.0547 362.467C-32.1922 364.11 -35.3297 365.493 -38.8159 366.185C-41.169 366.618 -43.5221 366.791 -45.8753 366.272C-49.71 365.407 -52.5861 363.245 -54.5035 359.959C-56.508 356.587 -57.2924 352.868 -57.4667 349.063C-57.8153 341.972 -56.0722 335.227 -53.4576 328.655C-50.3201 320.613 -45.8753 313.263 -40.9075 306.258C-34.8068 297.697 -27.9217 289.828 -20.4265 282.477C6.15527 256.362 31.1683 228.863 55.5712 200.759C72.0432 181.907 89.6482 164.18 108.822 148.095C125.817 133.827 144.032 121.115 162.683 109.181C197.021 87.3033 232.144 66.8951 268.313 48.1301C285.482 39.2231 302.389 29.8838 318.687 19.5068C329.058 12.8482 339.168 5.84376 348.406 -2.37137C353.374 -6.7816 357.906 -11.5377 361.828 -16.8127C366.447 -23.0389 370.02 -29.784 372.025 -37.3073C373.419 -42.6687 373.507 -47.9437 371.851 -53.3052C369.759 -61.0879 364.443 -65.4117 356.512 -66.19C350.062 -66.8818 343.874 -65.7576 337.861 -63.4228C330.453 -60.5691 323.916 -56.2453 317.641 -51.4027C309.1 -44.8306 301.257 -37.4802 293.5 -29.9569C279.294 -16.2074 266.047 -1.50662 252.799 13.1941C244.345 22.5334 235.892 31.9592 227.263 41.212C211.314 58.0747 193.884 73.3808 175.581 87.7356C149.958 107.798 123.725 126.995 97.0562 145.674C85.1162 154.062 72.3918 161.239 59.6674 168.503C47.9889 175.248 36.2232 181.907 25.0675 189.517C14.522 196.781 4.49935 204.736 -4.04168 214.335C-11.7983 222.983 -18.3348 232.495 -22.6053 243.391C-24.6099 248.406 -26.0915 253.595 -26.2658 259.043C-26.3529 261.81 -26.0915 264.577 -25.2199 267.258C-24.697 268.814 -23.9126 270.198 -22.1696 270.976C-22.6053 270.976 -22.954 271.149 -23.3897 271.063C-24.6099 270.717 -25.3942 269.766 -25.83 268.641C-26.5272 266.653 -27.2245 264.577 -27.4859 262.502C-28.096 257.227 -27.1373 252.211 -25.5686 247.196C-22.431 237.165 -17.289 228.171 -10.9268 219.87C-1.68853 207.763 9.6414 197.991 22.1043 189.257C33.0857 181.561 44.677 174.73 56.3556 168.157C72.2175 159.164 87.818 149.825 102.547 139.102C112.221 132.097 121.808 125.006 131.482 117.915C148.215 105.636 164.862 93.1835 180.985 80.0394C202.948 62.2255 222.993 42.5092 241.818 21.4093C254.281 7.31384 267.092 -6.4357 279.991 -20.1852C289.752 -30.6487 300.211 -40.4204 311.279 -49.5867C316.508 -53.9105 321.912 -57.8884 327.751 -61.2609C333.852 -64.7199 340.214 -67.4006 347.273 -68.2654C351.021 -68.6977 354.769 -68.7842 358.516 -68.0924C365.924 -66.7088 370.979 -62.4715 373.507 -55.467C376.034 -48.6355 375.86 -41.804 373.768 -34.886C371.415 -27.1032 367.493 -20.0988 362.525 -13.6996C357.035 -6.69513 350.585 -0.728348 343.7 4.80605C332.457 13.7995 320.343 21.5822 307.967 29.0191C293.151 37.926 277.812 45.9682 262.473 54.0104C227.525 72.3431 193.448 92.1459 160.242 113.505C142.202 125.093 124.684 137.545 108.299 151.468C90.694 166.428 74.4835 182.772 59.1445 200.067C45.8972 215.027 32.5627 229.901 19.1411 244.774C7.46257 257.746 -5.08751 269.852 -17.4633 282.132C-24.4356 289.05 -31.1464 296.313 -37.1599 304.183C-43.3478 312.398 -48.7513 321.045 -52.3246 330.817C-54.0677 335.746 -55.375 340.762 -55.6365 345.95C-55.8108 348.977 -55.5493 352.003 -54.6778 354.944C-52.4118 362.813 -46.4854 366.358 -38.5544 364.196C-35.6783 363.418 -32.8894 362.207 -30.2748 360.91C-20.6008 355.981 -12.1469 349.323 -4.04168 342.145C7.98549 331.595 18.3567 319.835 28.3794 307.728C43.7184 289.136 57.6629 269.506 71.346 249.703C83.5474 231.89 96.1847 214.422 109.868 197.732C126.514 177.497 144.642 158.645 164.6 141.523C179.068 129.157 194.842 118.607 210.966 108.576C231.272 95.9508 251.492 83.2389 271.624 70.2677C280.514 64.4738 289.142 58.1612 297.683 51.8485C312.412 41.0391 327.228 30.3162 342.829 20.7175C352.764 14.6642 362.874 8.78391 373.419 3.68188C380.217 0.395828 387.103 -2.54433 394.511 -4.18736C400.35 -5.57095 406.276 -6.26275 412.377 -5.22505C413.074 -5.13858 413.771 -4.96563 414.382 -4.79268C423.533 -2.54433 425.711 4.54662 425.014 10.9458C424.491 15.6154 422.661 19.9392 420.308 23.917C416.473 30.2297 411.593 35.6776 406.102 40.6932C397.561 48.5624 388.061 55.221 378.039 61.2742C364.878 69.1435 351.195 75.8885 337.338 82.3742C317.554 91.627 297.683 100.793 278.074 110.219C255.937 120.942 234.584 133.135 214.713 147.663C183.599 170.319 155.536 196.175 131.743 226.528C123.115 237.597 115.097 249.098 107.95 261.118C96.0975 281.094 87.9923 302.453 83.1117 325.11C81.1071 334.276 79.4512 343.529 78.754 352.955C78.3182 358.23 77.9696 363.418 79.0155 368.693C79.3641 370.336 79.7998 371.893 80.5842 373.363C81.9787 376.043 84.1575 376.995 87.0336 375.957C88.6895 375.438 90.2583 374.573 91.6527 373.622C95.1388 371.287 98.2764 368.434 100.891 365.321C106.207 359.008 111.524 352.695 116.491 346.123C130.959 327.271 143.858 307.382 156.32 287.234C169.742 265.701 184.035 244.688 198.938 224.193C218.374 197.386 241.818 174.643 268.313 154.754C300.734 130.541 336.815 114.197 375.947 103.906C388.148 100.707 400.524 99.0639 413.161 98.8044C421.18 98.6315 429.198 99.2368 437.041 100.88C437.129 100.88 437.216 101.053 437.826 101.399Z" fill="#A7B8C7"/>
</g>
<path d="M79.3908 189.605C76.3419 187.621 74.1171 185.007 73.0811 181.529C72.4436 179.39 71.9884 177.134 71.8028 174.812C71.1495 166.795 70.2265 158.844 68.0978 150.97C68.058 150.837 68.058 150.837 68.0181 150.703C65.164 134.328 61.8182 118.001 59.9477 101.531C59.3052 95.7346 59.8134 90.1604 60.7735 84.4045C61.4427 80.584 63.549 77.7049 67.1247 76.1179C69.297 75.1591 71.6839 74.435 74.0555 74.145C90.482 72.0136 106.558 68.4615 122.8 65.2274C133.88 63.1058 144.992 61.335 156.103 59.5642C158.792 59.1253 161.608 58.8706 164.369 58.9162C172.032 58.9166 177.606 62.5809 180.432 69.6391C181.705 72.7001 182.527 75.9428 182.991 79.2005C184.991 91.9818 186.056 104.776 186.494 117.65C186.758 125.332 187.197 133.114 187.73 140.73C188.329 149.047 188.435 157.412 187.922 165.641C187.705 169.28 187.266 172.901 186.12 176.335C184.777 180.319 182.179 183.246 178.159 184.798C175.542 185.722 172.751 186.544 170.022 186.849C163.399 187.672 156.657 188.093 149.907 188.731C142.355 189.348 134.764 189.832 127.252 190.584C116.116 191.787 104.835 192.021 93.5549 192.255C90.3897 192.308 87.2474 191.71 84.0576 191.195C82.55 190.988 80.9306 190.163 79.3908 189.605Z" fill="#00D4FF"/>
<mask id="mask1_1176_7165" style="mask-type:alpha" maskUnits="userSpaceOnUse" x="59" y="58" width="130" height="135">
<path d="M79.3908 189.605C76.3419 187.621 74.1171 185.007 73.0811 181.529C72.4436 179.39 71.9884 177.134 71.8028 174.812C71.1495 166.795 70.2265 158.844 68.0978 150.97C68.058 150.837 68.058 150.837 68.0181 150.703C65.164 134.328 61.8182 118.001 59.9477 101.531C59.3052 95.7346 59.8134 90.1604 60.7735 84.4045C61.4427 80.584 63.549 77.7049 67.1247 76.1179C69.297 75.1591 71.6839 74.435 74.0555 74.145C90.482 72.0136 106.558 68.4615 122.8 65.2274C133.88 63.1058 144.992 61.335 156.103 59.5642C158.792 59.1253 161.608 58.8706 164.369 58.9162C172.032 58.9166 177.606 62.5809 180.432 69.6391C181.705 72.7001 182.527 75.9428 182.991 79.2005C184.991 91.9818 186.056 104.776 186.494 117.65C186.758 125.332 187.197 133.114 187.73 140.73C188.329 149.047 188.435 157.412 187.922 165.641C187.705 169.28 187.266 172.901 186.12 176.335C184.777 180.319 182.179 183.246 178.159 184.798C175.542 185.722 172.751 186.544 170.022 186.849C163.399 187.672 156.657 188.093 149.907 188.731C142.355 189.348 134.764 189.832 127.252 190.584C116.116 191.787 104.835 192.021 93.5549 192.255C90.3897 192.308 87.2474 191.71 84.0576 191.195C82.55 190.988 80.9306 190.163 79.3908 189.605Z" fill="#55BBDA"/>
</mask>
<g mask="url(#mask1_1176_7165)">
<path d="M158.991 242.812C158.047 241.824 157.649 240.488 157.386 239.12C156.859 236.383 157.133 233.666 157.581 231.05C158.744 224.534 160.922 218.274 163.449 212.215C165.439 207.504 167.65 202.811 169.64 198.101C169.83 197.768 169.885 197.468 170.137 196.619C168.871 197.213 168.19 197.594 167.422 197.924C158.231 202.453 148.794 206.397 138.571 208.67C134.849 209.504 130.96 210.02 127.126 210.237C124.853 210.36 122.373 210.033 120.083 209.372C114.972 207.966 112.218 204.051 112.441 198.983C112.563 195.515 113.699 192.301 115.359 189.39C117.303 185.98 119.461 182.804 121.579 179.495C121.817 179.079 122.141 178.714 122.75 177.849C121.578 178.278 120.857 178.525 120.137 178.772C113.954 181.279 107.603 183.469 101.054 184.991C96.6594 185.989 92.272 186.77 87.6933 186.667C85.0238 186.672 82.4567 186.293 79.9523 185.399C75.7834 183.763 73.4104 180.4 73.563 176.065C73.6698 173.031 74.7037 170.2 75.9992 167.521C79.2616 160.782 83.7847 154.881 88.395 149.032C89.9293 147.154 91.4635 145.277 92.8309 143.081C92.063 143.411 91.2951 143.742 90.6143 144.122C83.0941 147.958 75.629 151.494 67.4891 153.976C63.9813 155.044 60.394 155.846 56.7271 156.38C54.5808 156.687 52.2279 156.543 50.1519 156.117C45.6909 155.197 43.041 152.117 42.6627 147.696C42.4055 144.894 43.0753 142.295 43.9195 139.797C45.8925 134.303 48.6502 129.262 51.971 124.658C55.7186 119.304 59.7751 114.019 63.6099 108.717C64.0764 108.102 64.543 107.487 64.7555 106.504C64.035 106.751 63.3145 106.998 62.5465 107.328C54.6454 110.611 46.4978 113.31 37.905 114.757C34.7292 115.243 31.4738 115.462 28.2658 115.598C27.3311 115.611 26.1271 115.689 25.7369 114.136C26.1881 113.955 26.5522 113.723 26.9959 113.758C32.2951 113.615 37.4979 112.42 42.5263 111.125C51.506 108.797 60.0727 105.566 68.3532 101.617C69.4852 101.055 70.5376 100.226 71.4156 99.2956C85.4074 83.4983 100.43 68.7395 117.643 56.2416C122.755 52.562 127.947 49.1496 133.686 46.6068C136.038 45.5332 138.468 44.7268 140.939 44.0539C142.562 43.4441 144.392 43.2854 145.495 44.8078C146.638 46.4637 145.824 48.0944 144.804 49.2739C141.838 52.6461 138.911 56.1518 135.557 59.1888C117.574 75.8857 97.5516 89.8554 75.4897 101.098C73.2257 102.222 71.3503 103.681 69.7686 105.642C63.8688 112.737 58.0088 119.965 53.0606 127.831C50.3731 132.138 47.7728 136.496 46.3536 141.426C45.8963 143.041 45.6135 144.758 45.5999 146.409C45.5497 150.361 47.6841 152.921 51.7243 153.156C54.0298 153.383 56.5249 153.277 58.8134 152.72C63.5251 151.574 68.1573 150.16 72.7098 148.479C82.6303 144.704 91.8836 139.659 100.883 134.245C101.611 133.781 102.434 133.151 103.035 132.504C115.747 118.952 129.751 106.59 143.581 94.1272C153.779 84.9836 164.112 75.8073 175.168 67.6013C177.407 65.9102 179.821 64.32 182.275 62.8633C183.003 62.3996 183.905 62.0367 184.887 61.9409C186.408 61.7142 187.566 62.9366 187.069 64.4186C186.722 65.4343 186.2 66.3492 185.679 67.2641C181.971 72.7509 177.312 77.4663 172.74 82.2322C152.553 103.405 129.327 121.163 104.229 136.511C102.638 137.471 101.174 138.616 100.012 140.045C94.9576 145.859 90.0383 151.641 85.2459 157.606C82.3121 161.329 79.6797 165.336 77.9667 169.764C77.3274 171.496 76.7753 173.278 76.5322 175.128C76.0385 179.044 77.9035 181.671 81.7787 182.805C83.7598 183.397 85.9307 183.657 87.9347 183.599C91.4119 183.398 94.8494 183.063 98.2073 182.461C108.107 180.553 117.306 177.025 126.26 172.912C127.028 172.582 127.716 171.985 128.27 171.42C144.12 153.38 161.605 136.947 179.993 121.37C189.899 112.942 199.972 104.832 210.648 97.291C212.745 95.8495 214.93 94.4583 217.154 93.2007C218.381 92.4724 219.782 91.8448 221.115 93.1681C222.447 94.4914 221.776 95.8726 221.025 96.9866C218.629 100.578 216.321 104.22 213.625 107.527C195.57 130.043 174.129 148.943 149.26 164.092C143.53 167.635 137.466 170.543 131.608 173.903C130.698 174.483 129.701 175.012 129.052 175.743C125.011 180.594 121.057 185.496 118.363 191.238C117.4 193.335 116.563 195.616 116.123 198.015C115.337 202.647 117.503 205.559 122.321 206.464C124.397 206.89 126.615 207.066 128.714 206.842C132.69 206.376 136.626 205.776 140.53 204.826C151.664 201.974 162.011 197.45 171.992 191.941C173.037 191.329 173.733 190.514 174.302 189.516C180.19 178.986 188.321 170.417 197.833 163.088C199.843 161.596 202.115 160.256 204.379 159.132C205.558 158.487 206.991 158.209 208.417 158.149C210.778 158.076 212.317 159.85 211.662 162.015C211.11 163.797 210.202 165.594 209.126 167.074C206.13 171.313 202.309 174.965 198.321 178.299C191.714 183.99 184.472 188.761 176.929 193.247C176.067 193.743 175.061 194.489 174.587 195.321C168.48 207.051 162.769 218.899 159.38 231.758C158.875 233.457 158.545 235.256 158.484 236.99C158.336 238.674 158.711 240.66 158.991 242.812ZM217.618 96.4546C204.825 102.218 141.378 157.987 136.329 167.453C146.027 163.661 171.541 145.346 187.088 130.89C198.401 120.4 208.763 109.139 217.618 96.4546ZM143.691 46.7509C143.564 46.5669 143.35 46.3325 143.223 46.1485C142.415 46.3451 141.528 46.2745 140.76 46.6046C138.551 47.4287 136.302 48.1192 134.26 49.2608C130.223 51.4609 126.273 53.7115 122.578 56.33C109.037 65.6423 96.813 76.7114 85.3191 88.5341C82.8747 90.9914 80.6521 93.4663 78.2949 95.974C78.3347 96.1076 78.5091 96.2085 78.5489 96.342C79.3642 95.9287 80.1796 95.5154 80.9949 95.1021C96.4621 86.6821 110.866 76.8734 124.381 65.7766C130.473 60.784 136.432 55.8241 141.493 49.793C142.324 48.9461 142.988 47.7817 143.691 46.7509ZM113.942 125.981C116.538 124.275 119.047 122.519 121.595 120.895C142.655 106.53 161.874 90.1055 178.864 71.2864C180.343 69.7086 181.648 68.0301 183.04 66.402C176.151 68.723 124.437 113.47 113.942 125.981ZM208.612 161.468C202.528 161.158 184.118 178.603 179.97 186.49C180.239 186.424 180.461 186.442 180.643 186.326C189.428 180.678 197.611 174.461 204.555 166.753C206.034 165.176 207.117 163.48 208.612 161.468Z" fill="#0A2540"/>
</g>
</svg>
